<svg width="307" height="100" viewBox="0 0 307 100" fill="none" xmlns="http://www.w3.org/2000/svg">
<path fill-rule="evenodd" clip-rule="evenodd" d="M153.857 22.8506L153.857 21.0286V11.4286V1.82857V0C153.241 0 152.629 0.0498045 152.029 0.147185C149.675 0.528617 147.483 1.63998 145.776 3.34735C143.633 5.49062 142.429 8.39752 142.429 11.4286V11.4286C139.398 11.4286 136.491 12.6327 134.347 14.7759C132.64 16.4833 131.529 18.6753 131.147 21.0286C131.05 21.6294 131 22.2407 131 22.8572H132.829H142.429H152.029L153.857 22.8571V22.8506ZM142.576 13.2583C142.527 13.2575 142.478 13.2572 142.429 13.2572C139.882 13.2572 137.441 14.2686 135.64 16.0689C134.277 17.4321 133.366 19.1631 133.004 21.0286H142.429H147.656C146.983 20.5935 146.352 20.0855 145.776 19.5098C144.069 17.8027 142.958 15.6111 142.576 13.2583ZM151.807 20.8072C150.026 20.4179 148.378 19.5259 147.069 18.2168C145.76 16.9077 144.868 15.2594 144.479 13.4785C146.259 13.8678 147.908 14.7598 149.217 16.0689C150.526 17.378 151.418 19.0263 151.807 20.8072ZM152.029 16.6561C151.594 15.9825 151.086 15.3517 150.51 14.7759C148.803 13.0688 146.611 11.9576 144.258 11.576C144.258 11.5269 144.257 11.4777 144.257 11.4286C144.257 8.88249 145.269 6.4407 147.069 4.64035C148.432 3.27716 150.163 2.36627 152.029 2.00429V11.4286L152.029 16.6561ZM156.143 22.8505V21.0286V11.4286V1.82857V0C156.759 0 157.371 0.0498045 157.971 0.147185C160.325 0.528617 162.517 1.63998 164.224 3.34735C166.367 5.49062 167.571 8.39752 167.571 11.4286C170.602 11.4286 173.509 12.6327 175.653 14.7759C177.36 16.4833 178.471 18.6753 178.853 21.0286C178.95 21.6294 179 22.2407 179 22.8572H177.171H167.571H157.971L156.143 22.8571V22.8505ZM165.743 11.4286C165.743 11.4777 165.742 11.5269 165.742 11.576C163.389 11.9576 161.197 13.0688 159.49 14.7759C158.914 15.3517 158.406 15.9825 157.971 16.6561V11.4286V2.00429C159.837 2.36627 161.568 3.27716 162.931 4.64035C164.731 6.4407 165.743 8.88249 165.743 11.4286ZM160.783 16.0689C159.474 17.378 158.582 19.0263 158.193 20.8072C159.974 20.4179 161.622 19.5259 162.931 18.2168C164.24 16.9077 165.132 15.2594 165.521 13.4785C163.741 13.8678 162.092 14.7598 160.783 16.0689ZM164.224 19.5098C163.648 20.0855 163.017 20.5935 162.344 21.0286H167.571H176.996C176.634 19.1631 175.723 17.4321 174.36 16.0689C172.559 14.2686 170.118 13.2572 167.571 13.2572C167.522 13.2572 167.473 13.2575 167.424 13.2583C167.042 15.6111 165.931 17.8027 164.224 19.5098ZM153.857 26.9714L153.857 25.1494V25.1429L152.029 25.1428H142.429H132.829H131C131 25.7593 131.05 26.3706 131.147 26.9714C131.529 29.3247 132.64 31.5167 134.347 33.2241C136.491 35.3673 139.398 36.5714 142.429 36.5714C142.429 39.6025 143.633 42.5094 145.776 44.6526C147.483 46.36 149.675 47.4714 152.029 47.8528C152.629 47.9502 153.241 48 153.857 48V46.1714V36.5714V26.9714ZM144.258 36.424C144.258 36.4731 144.257 36.5223 144.257 36.5714C144.257 39.1175 145.269 41.5593 147.069 43.3597C148.432 44.7228 150.163 45.6337 152.029 45.9957V36.5714L152.029 31.3439C151.594 32.0175 151.086 32.6483 150.51 33.2241C148.803 34.9312 146.611 36.0424 144.258 36.424ZM151.807 27.1928C151.418 28.9737 150.526 30.622 149.217 31.9311C147.908 33.2402 146.259 34.1322 144.479 34.5215C144.868 32.7406 145.76 31.0923 147.069 29.7832C148.378 28.4741 150.026 27.5821 151.807 27.1928ZM147.656 26.9714C146.983 27.4065 146.352 27.9145 145.776 28.4902C144.069 30.1973 142.958 32.3889 142.576 34.7417C142.527 34.7425 142.478 34.7428 142.429 34.7428C139.882 34.7428 137.441 33.7314 135.64 31.9311C134.277 30.5679 133.366 28.8369 133.004 26.9714H142.429H147.656ZM156.143 25.1495V26.9714V36.5714V46.1714V48C156.759 48 157.371 47.9502 157.971 47.8528C160.325 47.4714 162.517 46.36 164.224 44.6526C166.367 42.5094 167.571 39.6025 167.571 36.5714C170.602 36.5714 173.509 35.3673 175.653 33.2241C177.36 31.5167 178.471 29.3247 178.853 26.9714C178.95 26.3706 179 25.7593 179 25.1428H177.171H167.571H157.971L156.143 25.1429V25.1495ZM167.571 34.7428C167.522 34.7428 167.473 34.7425 167.424 34.7417C167.042 32.3889 165.931 30.1973 164.224 28.4902C163.648 27.9145 163.017 27.4065 162.344 26.9714H167.571H176.996C176.634 28.8369 175.723 30.5679 174.36 31.9311C172.559 33.7314 170.118 34.7428 167.571 34.7428ZM162.931 29.7832C161.622 28.4741 159.974 27.5821 158.193 27.1928C158.582 28.9737 159.474 30.622 160.783 31.9311C162.092 33.2402 163.741 34.1322 165.521 34.5215C165.132 32.7406 164.24 31.0923 162.931 29.7832ZM159.49 33.2241C158.914 32.6483 158.406 32.0175 157.971 31.3439V36.5714V45.9957C159.837 45.6337 161.568 44.7228 162.931 43.3597C164.731 41.5593 165.743 39.1175 165.743 36.5714C165.743 36.5223 165.742 36.4731 165.742 36.424C163.389 36.0424 161.197 34.9312 159.49 33.2241ZM136.5 7.62857C137.676 7.62857 138.629 6.67558 138.629 5.5C138.629 4.32442 137.676 3.37143 136.5 3.37143C135.324 3.37143 134.371 4.32442 134.371 5.5C134.371 6.67558 135.324 7.62857 136.5 7.62857ZM136.5 9C138.433 9 140 7.433 140 5.5C140 3.567 138.433 2 136.5 2C134.567 2 133 3.567 133 5.5C133 7.433 134.567 9 136.5 9ZM175.629 5.5C175.629 6.67558 174.676 7.62857 173.5 7.62857C172.324 7.62857 171.371 6.67558 171.371 5.5C171.371 4.32442 172.324 3.37143 173.5 3.37143C174.676 3.37143 175.629 4.32442 175.629 5.5ZM177 5.5C177 7.433 175.433 9 173.5 9C171.567 9 170 7.433 170 5.5C170 3.567 171.567 2 173.5 2C175.433 2 177 3.567 177 5.5ZM173.5 44.6286C174.676 44.6286 175.629 43.6756 175.629 42.5C175.629 41.3244 174.676 40.3714 173.5 40.3714C172.324 40.3714 171.371 41.3244 171.371 42.5C171.371 43.6756 172.324 44.6286 173.5 44.6286ZM173.5 46C175.433 46 177 44.433 177 42.5C177 40.567 175.433 39 173.5 39C171.567 39 170 40.567 170 42.5C170 44.433 171.567 46 173.5 46ZM138.629 42.5C138.629 43.6756 137.676 44.6286 136.5 44.6286C135.324 44.6286 134.371 43.6756 134.371 42.5C134.371 41.3244 135.324 40.3714 136.5 40.3714C137.676 40.3714 138.629 41.3244 138.629 42.5ZM140 42.5C140 44.433 138.433 46 136.5 46C134.567 46 133 44.433 133 42.5C133 40.567 134.567 39 136.5 39C138.433 39 140 40.567 140 42.5Z" fill="#BAA598"/>
<path d="M2.22222 69.4C2.22222 67.9778 2.82963 66.837 4.04444 65.9778C5.25926 65.0889 6.77037 64.6444 8.57778 64.6444C10.3852 64.6444 11.7333 65.0296 12.6222 65.8C12.8 65.5333 12.8889 65.2222 12.8889 64.8667H14.0444V69.2667H12.8889C12.7704 68.1111 12.2815 67.2222 11.4222 66.6C10.563 65.9481 9.57037 65.6222 8.44444 65.6222C7.31852 65.6222 6.4 65.8593 5.68889 66.3333C4.97778 66.7778 4.62222 67.4 4.62222 68.2C4.62222 69 4.94815 69.7111 5.6 70.3333C6.28148 70.9259 7.64444 71.6667 9.68889 72.5556C11.6148 73.3259 12.9481 74.1111 13.6889 74.9111C14.4593 75.7111 14.8444 76.7037 14.8444 77.8889C14.8444 79.5481 14.2519 80.8667 13.0667 81.8444C11.9111 82.7926 10.5037 83.2667 8.84444 83.2667C7.21481 83.2667 5.77778 82.9259 4.53333 82.2444C4.17778 82.037 3.88148 81.8296 3.64444 81.6222C3.31852 82.0074 3.15556 82.4667 3.15556 83H2.08889V78.2H3.33333C3.62963 79.4148 4.26667 80.3926 5.24444 81.1333C6.22222 81.8741 7.48148 82.2444 9.02222 82.2444C10.5926 82.2444 11.6741 81.7704 12.2667 80.8222C12.4444 80.4963 12.5333 80.1259 12.5333 79.7111C12.5333 78.8519 12.2222 78.1259 11.6 77.5333C11.0074 76.9111 9.97037 76.3333 8.48889 75.8C5.94074 74.8519 4.23704 73.8741 3.37778 72.8667C2.60741 71.9778 2.22222 70.8222 2.22222 69.4ZM20.8186 82.0667H23.1742V65.8H20.8186V64.8667H28.6853V65.8H26.3742V82.0667H28.6853V83H20.8186V82.0667ZM34.0768 82.0667H36.2546V65.8H34.0324V64.8667H40.2101L45.5435 78.0667L50.8768 64.8667H56.8324V65.8H54.5213V82.0667H57.0546V83H49.1879V82.0667H51.3213L51.3657 66.2889L44.7879 82.7333H44.299L37.3213 66.2444V82.0667H39.4546V83H34.0768V82.0667ZM61.7003 82.0667H63.7892V65.8H61.7447V64.8667H69.4336C71.8929 64.8667 73.6855 65.3704 74.8114 66.3778C75.9373 67.3852 76.5003 68.8222 76.5003 70.6889C76.5003 72.5259 75.9077 74.037 74.7225 75.2222C73.5373 76.3778 71.7892 76.9556 69.4781 76.9556H66.9447V82.0667H69.9669V83H61.7003V82.0667ZM69.1669 76.1111C71.0632 76.1111 72.3077 75.0741 72.9003 73C73.1077 72.2889 73.2114 71.5333 73.2114 70.7333C73.2114 67.4444 71.8781 65.8 69.2114 65.8H66.9447V76.1111H69.1669ZM81.6119 82.0667H84.1453V65.8H82.1897V64.8667H89.4342V65.8H87.3453V82.0667H90.9897C93.0638 82.0667 94.3082 81.1185 94.7231 79.2222C94.8416 78.6593 94.9305 78.0815 94.9897 77.4889H95.9231V83H81.6119V82.0667ZM101.319 82.0667H103.675L103.719 65.8H101.319V64.8667H116.608V70.0222H115.719C115.69 69.3704 115.631 68.7926 115.542 68.2889C115.482 67.7852 115.334 67.3556 115.097 67C114.653 66.2593 113.719 65.8593 112.297 65.8H106.875V73.2222H109.853C110.505 73.2222 111.023 73.1037 111.408 72.8667C111.823 72.6296 112.045 72.0963 112.075 71.2667C112.105 71.0889 112.119 70.9111 112.119 70.7333H113.142V76.8222H112.119C112.119 76.6444 112.105 76.437 112.075 76.2C112.045 75.3111 111.823 74.7481 111.408 74.5111C111.023 74.2741 110.505 74.1556 109.853 74.1556H106.875V82.0667H111.942C114.016 82.0667 115.29 81.1185 115.764 79.2222C115.882 78.6593 115.956 78.0815 115.986 77.4889H116.919V83H101.319V82.0667ZM123.364 82.0667H125.409V65.8H123.364V64.8667H132.342C134.209 64.8667 135.587 65.2963 136.476 66.1556C137.364 66.9852 137.809 68.1259 137.809 69.5778C137.809 71.0296 137.083 72.1259 135.631 72.8667C135.216 73.1037 134.772 73.2815 134.298 73.4C135.839 73.5778 137.009 74.0667 137.809 74.8667C138.609 75.6667 139.009 76.6444 139.009 77.8C139.009 79.4 138.416 80.6741 137.231 81.6222C136.076 82.5407 134.416 83 132.253 83H123.364V82.0667ZM131.498 73.1333C133.661 73.1333 134.742 71.9333 134.742 69.5333C134.742 68.3185 134.535 67.4444 134.12 66.9111C133.616 66.1704 132.639 65.8 131.187 65.8H128.609V73.1333H131.498ZM131.32 82.0667C132.772 82.0667 133.868 81.7259 134.609 81.0444C135.379 80.363 135.764 79.3852 135.764 78.1111C135.764 76.2444 135.039 75 133.587 74.3778C133.024 74.1407 132.372 74.0222 131.631 74.0222H128.609V82.0667H131.32ZM152.743 64.8667C157.276 64.8667 159.543 66.3926 159.543 69.4444C159.543 70.837 159.113 71.9481 158.254 72.7778C157.424 73.5778 156.313 74.0963 154.921 74.3333C156.787 74.6296 158.061 75.5778 158.743 77.1778C159.009 77.8296 159.246 78.5556 159.454 79.3556C159.661 80.1259 159.839 80.6593 159.987 80.9556C160.372 81.6963 160.921 82.0667 161.632 82.0667H162.076L162.121 83.0444H160.432C158.891 83.0444 157.854 82.837 157.321 82.4222C156.787 82.0074 156.372 81.2074 156.076 80.0222C155.809 78.8074 155.543 77.8741 155.276 77.2222C155.039 76.5407 154.639 75.9481 154.076 75.4444C153.543 74.9111 152.832 74.6444 151.943 74.6444H149.765V82.0667H152.521V83H144.654V82.0667H146.565L146.609 65.8H144.654V64.8667H152.743ZM152.521 73.8444C154.95 73.8444 156.165 72.437 156.165 69.6222C156.165 68.3778 155.884 67.4296 155.321 66.7778C154.787 66.1259 153.78 65.8 152.298 65.8H149.765V73.8444H152.521ZM166.832 76.2889C166.654 75.5185 166.566 74.7333 166.566 73.9333C166.566 72.3333 166.906 70.8222 167.588 69.4C168.299 67.9778 169.321 66.837 170.654 65.9778C172.017 65.0889 173.647 64.6444 175.543 64.6444C178.447 64.6444 180.714 65.6074 182.343 67.5333C183.795 69.2815 184.521 71.4296 184.521 73.9778C184.521 76.5259 183.751 78.7037 182.21 80.5111C180.699 82.2889 178.491 83.1926 175.588 83.2222C173.691 83.2519 172.017 82.8222 170.566 81.9333C168.64 80.7185 167.395 78.837 166.832 76.2889ZM179.81 79.4889C180.106 78.9556 180.403 78.2296 180.699 77.3111C180.995 76.3926 181.143 75.4296 181.143 74.4222C181.143 70.8963 180.329 68.363 178.699 66.8222C177.84 66.0222 176.788 65.6222 175.543 65.6222C173.588 65.6222 172.136 66.4963 171.188 68.2444C170.358 69.7556 169.958 71.637 169.988 73.8889C170.017 76.1111 170.432 77.9778 171.232 79.4889C172.21 81.3259 173.632 82.2444 175.499 82.2444C177.366 82.2444 178.803 81.3259 179.81 79.4889ZM190.349 65.8H188.615V64.8667H196.26V65.8H193.904L198.349 78.9111L203.015 64.8667H203.86L209.015 78.8667L213.282 65.8H211.015V64.8667H216.349V65.8H214.527L208.66 83.2667H207.549L202.438 70.1111L197.993 83.2667H196.927L190.349 65.8ZM220.017 82.0667H222.106V65.8H220.017V64.8667H225.439L234.994 79.1333V65.8H232.728V64.8667H238.328V65.8H236.194V83H233.972L223.261 67.2667V82.0667H225.661V83H220.017V82.0667ZM243.902 82.0667H245.946V65.8H243.902V64.8667H252.88C254.746 64.8667 256.124 65.2963 257.013 66.1556C257.902 66.9852 258.346 68.1259 258.346 69.5778C258.346 71.0296 257.62 72.1259 256.169 72.8667C255.754 73.1037 255.309 73.2815 254.835 73.4C256.376 73.5778 257.546 74.0667 258.346 74.8667C259.146 75.6667 259.546 76.6444 259.546 77.8C259.546 79.4 258.954 80.6741 257.769 81.6222C256.613 82.5407 254.954 83 252.791 83H243.902V82.0667ZM252.035 73.1333C254.198 73.1333 255.28 71.9333 255.28 69.5333C255.28 68.3185 255.072 67.4444 254.658 66.9111C254.154 66.1704 253.176 65.8 251.724 65.8H249.146V73.1333H252.035ZM251.858 82.0667C253.309 82.0667 254.406 81.7259 255.146 81.0444C255.917 80.363 256.302 79.3852 256.302 78.1111C256.302 76.2444 255.576 75 254.124 74.3778C253.561 74.1407 252.909 74.0222 252.169 74.0222H249.146V82.0667H251.858ZM265.725 76.2889C265.547 75.5185 265.458 74.7333 265.458 73.9333C265.458 72.3333 265.799 70.8222 266.48 69.4C267.191 67.9778 268.214 66.837 269.547 65.9778C270.91 65.0889 272.54 64.6444 274.436 64.6444C277.34 64.6444 279.606 65.6074 281.236 67.5333C282.688 69.2815 283.414 71.4296 283.414 73.9778C283.414 76.5259 282.643 78.7037 281.102 80.5111C279.591 82.2889 277.384 83.1926 274.48 83.2222C272.584 83.2519 270.91 82.8222 269.458 81.9333C267.532 80.7185 266.288 78.837 265.725 76.2889ZM278.702 79.4889C278.999 78.9556 279.295 78.2296 279.591 77.3111C279.888 76.3926 280.036 75.4296 280.036 74.4222C280.036 70.8963 279.221 68.363 277.591 66.8222C276.732 66.0222 275.68 65.6222 274.436 65.6222C272.48 65.6222 271.028 66.4963 270.08 68.2444C269.251 69.7556 268.851 71.637 268.88 73.8889C268.91 76.1111 269.325 77.9778 270.125 79.4889C271.102 81.3259 272.525 82.2444 274.391 82.2444C276.258 82.2444 277.695 81.3259 278.702 79.4889ZM288.219 82.0667H290.263L295.775 74.6444L289.952 65.8H288.219V64.8667H295.775V65.8H293.552L297.863 72.2444L302.663 65.8H300.663V64.8667H305.997V65.8H303.952L298.486 73.2222L304.486 82.0667H306.086V83H298.575V82.0667H300.752L296.397 75.5778L291.597 82.0667H293.775V83H288.219V82.0667Z" fill="#BAA598"/>
</svg>
